<?xml version="1.0" encoding="utf-8"?>
<!-- Generator: Adobe Illustrator 27.5.0, SVG Export Plug-In . SVG Version: 6.00 Build 0)  -->
<svg version="1.1" xmlns="http://www.w3.org/2000/svg" xmlns:xlink="http://www.w3.org/1999/xlink" x="0px" y="0px"
	 viewBox="0 0 500 500" style="enable-background:new 0 0 500 500;" xml:space="preserve">
<g id="BACKGROUND">
	<g>
		<g>
			<rect style="fill:#69CDE8;" width="500" height="500"/>
		</g>
	</g>
</g>
<g id="OBJECTS">
	<g>
		<g>
			<path style="fill:#7FDAEF;" d="M473.33,288.46c0,49.15-15.88,94.59-42.78,131.48H69.45c-26.9-36.89-42.78-82.33-42.78-131.48
				c0-123.34,99.99-223.33,223.33-223.33S473.33,165.12,473.33,288.46z"/>
			
				<line style="fill:none;stroke:#FFFFFF;stroke-width:2;stroke-linecap:round;stroke-linejoin:round;stroke-miterlimit:10;" x1="44.333" y1="419.943" x2="455.667" y2="419.943"/>
		</g>
		<g>
			<g>
				<path style="fill:#23A2B7;" d="M401.332,401.624l-17.148-4.212c-0.735-0.181-1.184-0.922-1.004-1.657l29.321-119.366
					c0.18-0.735,0.922-1.184,1.657-1.004l17.148,4.212c0.735,0.18,1.184,0.922,1.004,1.657L402.99,400.62
					C402.809,401.355,402.067,401.804,401.332,401.624z"/>
				<g>
					<path style="fill:#39BCC9;" d="M404.381,394.957l-0.281,1.145l-6.038-1.483c-0.321-0.079-0.514-0.398-0.435-0.719
						c0.076-0.311,0.396-0.505,0.717-0.426L404.381,394.957z"/>
					<path style="fill:#39BCC9;" d="M403.491,398.579l-0.281,1.145l-6.038-1.483c-0.321-0.079-0.514-0.398-0.435-0.719
						c0.077-0.312,0.396-0.505,0.717-0.426L403.491,398.579z"/>
					<path style="fill:#39BCC9;" d="M431.96,282.68l-0.281,1.145l-6.038-1.483c-0.321-0.079-0.514-0.398-0.435-0.719
						c0.077-0.312,0.396-0.505,0.717-0.426L431.96,282.68z"/>
					<path style="fill:#39BCC9;" d="M431.07,286.302l-0.281,1.145l-6.038-1.483c-0.321-0.079-0.514-0.398-0.435-0.719
						c0.077-0.311,0.396-0.505,0.717-0.426L431.07,286.302z"/>
					<path style="fill:#39BCC9;" d="M430.181,289.924l-0.281,1.145l-6.038-1.483c-0.321-0.079-0.514-0.398-0.435-0.719
						c0.077-0.312,0.396-0.505,0.717-0.426L430.181,289.924z"/>
					<path style="fill:#39BCC9;" d="M429.291,293.546l-0.281,1.145l-6.038-1.483c-0.321-0.079-0.514-0.398-0.436-0.719
						c0.077-0.311,0.396-0.505,0.717-0.426L429.291,293.546z"/>
					<path style="fill:#39BCC9;" d="M428.401,297.167l-0.281,1.145l-6.038-1.483c-0.321-0.079-0.514-0.398-0.435-0.719
						c0.077-0.312,0.396-0.505,0.717-0.426L428.401,297.167z"/>
					<path style="fill:#39BCC9;" d="M427.512,300.789l-0.281,1.145l-6.038-1.483c-0.321-0.079-0.514-0.398-0.435-0.719
						c0.077-0.311,0.396-0.505,0.717-0.426L427.512,300.789z"/>
					<path style="fill:#39BCC9;" d="M426.622,304.411l-0.281,1.145l-6.038-1.483c-0.321-0.079-0.514-0.398-0.435-0.719
						c0.077-0.312,0.396-0.505,0.717-0.426L426.622,304.411z"/>
					<path style="fill:#39BCC9;" d="M425.732,308.033l-0.281,1.145l-6.038-1.483c-0.321-0.079-0.514-0.398-0.435-0.719
						c0.077-0.312,0.396-0.505,0.717-0.426L425.732,308.033z"/>
					<path style="fill:#39BCC9;" d="M424.843,311.655l-0.281,1.145l-6.038-1.483c-0.321-0.079-0.514-0.398-0.435-0.719
						c0.077-0.312,0.396-0.505,0.717-0.426L424.843,311.655z"/>
					<path style="fill:#39BCC9;" d="M423.953,315.277l-0.281,1.145l-6.038-1.483c-0.321-0.079-0.514-0.398-0.435-0.719
						c0.077-0.311,0.396-0.505,0.717-0.426L423.953,315.277z"/>
					<path style="fill:#39BCC9;" d="M423.063,318.898l-0.281,1.145l-6.038-1.483c-0.321-0.079-0.514-0.398-0.435-0.719
						c0.077-0.312,0.396-0.505,0.717-0.426L423.063,318.898z"/>
					<path style="fill:#39BCC9;" d="M422.174,322.52l-0.281,1.145l-6.038-1.483c-0.321-0.079-0.514-0.398-0.435-0.719
						c0.077-0.312,0.396-0.505,0.717-0.426L422.174,322.52z"/>
					<path style="fill:#39BCC9;" d="M421.284,326.142l-0.281,1.145l-6.038-1.483c-0.321-0.079-0.514-0.398-0.435-0.719
						c0.077-0.312,0.396-0.505,0.717-0.426L421.284,326.142z"/>
					<path style="fill:#39BCC9;" d="M420.395,329.764l-0.281,1.145l-6.038-1.483c-0.321-0.079-0.514-0.398-0.435-0.719
						c0.077-0.311,0.396-0.505,0.717-0.426L420.395,329.764z"/>
					<path style="fill:#39BCC9;" d="M419.505,333.386l-0.281,1.145l-6.038-1.483c-0.321-0.079-0.514-0.398-0.435-0.719
						c0.077-0.312,0.396-0.505,0.717-0.426L419.505,333.386z"/>
					<path style="fill:#39BCC9;" d="M418.615,337.008l-0.281,1.145l-6.038-1.483c-0.321-0.079-0.514-0.398-0.435-0.719
						c0.077-0.311,0.396-0.505,0.717-0.426L418.615,337.008z"/>
					<path style="fill:#39BCC9;" d="M417.725,340.63l-0.281,1.145l-6.038-1.483c-0.321-0.079-0.514-0.398-0.435-0.719
						c0.077-0.312,0.396-0.505,0.717-0.426L417.725,340.63z"/>
					<path style="fill:#39BCC9;" d="M416.836,344.251l-0.281,1.145l-6.038-1.483c-0.321-0.079-0.514-0.398-0.435-0.719
						c0.077-0.311,0.396-0.505,0.717-0.426L416.836,344.251z"/>
					<path style="fill:#39BCC9;" d="M415.946,347.873l-0.281,1.145l-6.038-1.483c-0.321-0.079-0.514-0.398-0.435-0.719
						c0.077-0.312,0.396-0.505,0.717-0.426L415.946,347.873z"/>
					<path style="fill:#39BCC9;" d="M415.056,351.495l-0.281,1.145l-6.038-1.483c-0.321-0.079-0.514-0.398-0.435-0.719
						c0.077-0.311,0.396-0.505,0.717-0.426L415.056,351.495z"/>
					<path style="fill:#39BCC9;" d="M414.167,355.117l-0.281,1.145l-6.038-1.483c-0.321-0.079-0.514-0.398-0.435-0.719
						c0.077-0.312,0.396-0.505,0.717-0.426L414.167,355.117z"/>
					<path style="fill:#39BCC9;" d="M413.277,358.739l-0.281,1.145l-6.038-1.483c-0.321-0.079-0.514-0.398-0.435-0.719
						c0.077-0.311,0.396-0.505,0.717-0.426L413.277,358.739z"/>
					<path style="fill:#39BCC9;" d="M412.388,362.361l-0.281,1.145l-6.038-1.483c-0.321-0.079-0.514-0.398-0.435-0.719
						c0.076-0.312,0.396-0.505,0.717-0.426L412.388,362.361z"/>
					<path style="fill:#39BCC9;" d="M411.498,365.983l-0.281,1.145l-6.038-1.483c-0.321-0.079-0.514-0.398-0.435-0.719
						c0.077-0.311,0.396-0.505,0.717-0.426L411.498,365.983z"/>
					<path style="fill:#39BCC9;" d="M410.608,369.604l-0.281,1.145l-6.038-1.483c-0.321-0.079-0.514-0.398-0.435-0.719
						c0.077-0.312,0.396-0.505,0.717-0.426L410.608,369.604z"/>
					<path style="fill:#39BCC9;" d="M409.719,373.226l-0.281,1.145l-6.038-1.483c-0.321-0.079-0.514-0.398-0.435-0.719
						c0.077-0.312,0.396-0.505,0.717-0.426L409.719,373.226z"/>
					<path style="fill:#39BCC9;" d="M408.829,376.848l-0.281,1.145l-6.038-1.483c-0.321-0.079-0.514-0.398-0.435-0.719
						c0.076-0.312,0.396-0.505,0.717-0.426L408.829,376.848z"/>
					<path style="fill:#39BCC9;" d="M407.939,380.47l-0.281,1.145l-6.038-1.483c-0.321-0.079-0.514-0.398-0.435-0.719
						c0.076-0.311,0.396-0.505,0.717-0.426L407.939,380.47z"/>
					<path style="fill:#39BCC9;" d="M407.05,384.092l-0.281,1.145l-6.038-1.483c-0.321-0.079-0.514-0.398-0.435-0.719
						c0.077-0.312,0.396-0.505,0.717-0.426L407.05,384.092z"/>
					<path style="fill:#39BCC9;" d="M406.16,387.714l-0.281,1.145l-6.038-1.483c-0.321-0.079-0.514-0.398-0.435-0.719
						c0.076-0.311,0.396-0.505,0.717-0.426L406.16,387.714z"/>
					<path style="fill:#39BCC9;" d="M405.27,391.336l-0.281,1.145l-6.038-1.483c-0.321-0.079-0.514-0.398-0.435-0.719
						c0.077-0.312,0.396-0.505,0.717-0.426L405.27,391.336z"/>
				</g>
			</g>
			<g>
				<path style="fill:#1D9DAA;" d="M361.922,300.356L361.922,300.356c-2.805,0.645-4.555,3.442-3.91,6.246l0.715,3.109l10.156-2.337
					l-0.715-3.109C367.523,301.461,364.726,299.711,361.922,300.356z"/>
				<path style="fill:#23A2B7;" d="M358.727,309.712l19.08,82.924c0.54,2.345,1.353,4.61,2.433,6.759
					c1.423,2.832,3.547,6.677,5.609,9.07l0.718,3.121c0.114,0.497,0.609,0.807,1.106,0.692c0.497-0.114,0.807-0.61,0.692-1.106
					l-0.718-3.121c0.809-3.054,1.039-7.44,1.081-10.609c0.032-2.406-0.226-4.798-0.766-7.143l-19.08-82.924L358.727,309.712z"/>
			</g>
			<g>
				<path style="fill:#1D9DAA;" d="M379.174,394.384L379.174,394.384c2.863,0.29,5.419-1.796,5.709-4.659l0.321-3.174l-10.368-1.05
					l-0.321,3.174C374.225,391.538,376.311,394.094,379.174,394.384z"/>
				<path style="fill:#1D9DAA;" d="M391.552,388.329l8.57-84.658c0.242-2.394,0.2-4.8-0.133-7.183
					c-0.329-2.354-0.847-5.375-1.585-7.973c-0.497-1.75-0.696-3.57-0.513-5.38l0.023-0.224c0.051-0.507-0.318-0.96-0.825-1.011
					c-0.507-0.051-0.96,0.318-1.011,0.825l-0.023,0.224c-0.183,1.81-0.743,3.553-1.581,5.168c-1.244,2.398-2.358,5.253-3.151,7.494
					c-0.803,2.268-1.327,4.617-1.57,7.01l-8.57,84.658L391.552,388.329z"/>
			</g>
			<g>
				<path style="fill:#23A2B7;" d="M388.732,389.666l-2.719-85.047c-0.077-2.405-0.438-4.784-1.083-7.102
					c-0.638-2.29-1.552-5.215-2.628-7.693c-0.724-1.668-1.163-3.446-1.221-5.264l-0.007-0.225c-0.016-0.509-0.442-0.909-0.952-0.893
					c-0.509,0.016-0.909,0.442-0.893,0.952l0.007,0.225c0.058,1.818-0.266,3.62-0.882,5.331c-0.916,2.542-1.641,5.519-2.131,7.845
					c-0.496,2.354-0.704,4.752-0.627,7.157l2.719,85.047L388.732,389.666z"/>
			</g>
			<g>
				<path style="fill:#66D0E2;" d="M402.851,298.345c-2.873-0.172-5.341,2.017-5.513,4.889l-4.782,79.737
					c-0.144,2.402-0.003,4.804,0.427,7.171c0.566,3.119,1.519,7.406,2.822,10.284l-0.192,3.197
					c-0.031,0.509,0.357,0.946,0.866,0.976c0.509,0.03,0.946-0.357,0.976-0.866l0.192-3.197c1.638-2.702,3.096-6.845,4.031-9.873
					c0.71-2.299,1.137-4.667,1.281-7.069l4.782-79.736C407.913,300.986,405.724,298.517,402.851,298.345L402.851,298.345z"/>
			</g>
			<path style="fill:#3AB1CC;" d="M406.335,418.931h-31.602c-3.284,0-6.018-2.518-6.289-5.791l-5.834-70.639
				c-0.096-1.158,0.818-2.151,1.981-2.151h51.886c1.162,0,2.076,0.993,1.981,2.151l-5.834,70.639
				C412.353,416.412,409.618,418.931,406.335,418.931z"/>
		</g>
		<g>
			<g>
				<g>
					<rect x="226.259" y="380.961" style="fill:#CCF1FF;" width="40.74" height="28.018"/>
					<polygon style="fill:#A4EAFF;" points="266.999,393.686 226.259,389.654 226.259,380.961 266.999,380.961 					"/>
					<path style="fill:#FFFFFF;" d="M296.489,408.539h-99.719c-3.149,0-5.702,2.553-5.702,5.702v5.702h111.124v-5.702
						C302.191,411.092,299.638,408.539,296.489,408.539z"/>
					<path style="fill:#FFFFFF;" d="M374.1,208.64H119.159c-2.745,0-4.97,2.225-4.97,4.97v168.359c0,2.745,2.225,4.971,4.97,4.971
						H374.1c2.745,0,4.971-2.226,4.971-4.971V213.611C379.07,210.865,376.845,208.64,374.1,208.64L374.1,208.64z"/>
					<path style="fill:#004E8B;" d="M372.947,366.762H120.311c-1.094,0-1.981-0.887-1.981-1.981v-149.19
						c0-1.094,0.887-1.98,1.981-1.98h252.636c1.094,0,1.981,0.887,1.981,1.98v149.19
						C374.928,365.875,374.041,366.762,372.947,366.762z"/>
					<path style="fill:#8CC8F0;" d="M251.549,376.201c0,2.717-2.203,4.92-4.92,4.92c-2.717,0-4.92-2.203-4.92-4.92
						c0-2.717,2.203-4.92,4.92-4.92C249.346,371.281,251.549,373.484,251.549,376.201z"/>
				</g>
			</g>
			<path style="fill:#80D2F3;" d="M364.603,359.403H128.242c-0.883,0-1.599-0.716-1.599-1.598V222.568
				c0-0.883,0.716-1.599,1.599-1.599h236.361c0.883,0,1.599,0.716,1.599,1.598v135.236
				C366.201,358.687,365.485,359.403,364.603,359.403z"/>
		</g>
		<g>
			<path style="fill:#A4EAFF;" d="M307.064,208.64v143.38c0,1.995-1.612,3.608-3.599,3.608H179.962
				c-1.987,0-3.607-1.613-3.607-3.608V208.64H307.064z"/>
			<path style="fill:#FFFFFF;" d="M184.223,178.682c-7.037,0-12.741,5.704-12.741,12.741v156.131c0,1.992,1.615,3.606,3.606,3.606
				h123.497c1.992,0,3.606-1.615,3.606-3.606V191.427c0-7.039,5.706-12.745,12.745-12.745H184.223z"/>
			<path style="fill:#44A1B7;" d="M314.937,178.682c-7.039,0-12.745,5.706-12.745,12.745v17.213h25.491v-17.213
				C327.682,184.388,321.976,178.682,314.937,178.682z"/>
			<g id="XMLID_1127_">
				<g id="XMLID_1131_">
					
						<linearGradient id="XMLID_00000065049347179330322090000001675618784349908370_" gradientUnits="userSpaceOnUse" x1="123.4725" y1="501.5934" x2="132.7543" y2="492.3116" gradientTransform="matrix(0.9337 -0.3581 0.3581 0.9337 -38.4941 -90.0655)">
						<stop  offset="0" style="stop-color:#F5A94D"/>
						<stop  offset="1" style="stop-color:#EC7832"/>
					</linearGradient>
					<path id="XMLID_1133_" style="fill:url(#XMLID_00000065049347179330322090000001675618784349908370_);" d="M260.007,337.839
						l-2.16-4.819c-0.277-0.619-0.976-0.93-1.622-0.723l-5.027,1.616c-0.593,0.191-1.133-0.41-0.879-0.979l8.534-19.152
						l11.004,4.903l-8.534,19.152C261.069,338.406,260.262,338.407,260.007,337.839z"/>
					
						<linearGradient id="XMLID_00000091013412036302010980000005741357525861591982_" gradientUnits="userSpaceOnUse" x1="-784.3462" y1="153.4196" x2="-775.2417" y2="144.3151" gradientTransform="matrix(-0.9337 -0.3581 -0.3581 0.9337 -394.1046 -90.0655)">
						<stop  offset="0" style="stop-color:#F5A94D"/>
						<stop  offset="1" style="stop-color:#EC7832"/>
					</linearGradient>
					<path id="XMLID_1132_" style="fill:url(#XMLID_00000091013412036302010980000005741357525861591982_);" d="M279.706,337.839
						l2.16-4.819c0.277-0.619,0.976-0.93,1.622-0.723l5.027,1.616c0.593,0.191,1.133-0.41,0.879-0.979l-8.534-19.152l-11.004,4.903
						l8.534,19.152C278.643,338.406,279.451,338.407,279.706,337.839z"/>
				</g>
				
					<linearGradient id="XMLID_00000116214764510515355510000017643076020222340003_" gradientUnits="userSpaceOnUse" x1="247.6617" y1="303.3619" x2="292.051" y2="303.3619">
					<stop  offset="0" style="stop-color:#F5A94D"/>
					<stop  offset="1" style="stop-color:#EC7832"/>
				</linearGradient>
				<path id="XMLID_1130_" style="fill:url(#XMLID_00000116214764510515355510000017643076020222340003_);" d="M292.051,303.362
					c0,1.256-2.069,2.317-2.278,3.513c-0.215,1.23,1.363,2.932,0.945,4.08c-0.425,1.168-2.732,1.456-3.347,2.518
					c-0.62,1.072,0.279,3.214-0.513,4.156c-0.794,0.945-3.06,0.429-4.005,1.223c-0.943,0.792-0.826,3.113-1.898,3.733
					c-1.062,0.614-3.014-0.643-4.182-0.218c-1.148,0.418-1.833,2.639-3.064,2.855c-1.196,0.21-2.598-1.641-3.854-1.641
					c-1.256,0-2.658,1.85-3.854,1.641c-1.23-0.215-1.916-2.437-3.064-2.855c-1.168-0.425-3.12,0.832-4.182,0.217
					c-1.072-0.62-0.955-2.942-1.898-3.733c-0.945-0.794-3.211-0.278-4.005-1.224c-0.792-0.943,0.107-3.084-0.513-4.156
					c-0.614-1.062-2.921-1.35-3.346-2.518c-0.418-1.147,1.161-2.849,0.945-4.08c-0.21-1.196-2.278-2.257-2.278-3.513
					c0-1.256,2.069-2.317,2.278-3.513c0.215-1.23-1.363-2.932-0.945-4.08c0.425-1.168,2.732-1.456,3.347-2.518
					c0.62-1.072-0.279-3.214,0.513-4.156c0.794-0.945,3.06-0.429,4.005-1.223c0.943-0.792,0.826-3.113,1.898-3.733
					c1.062-0.614,3.014,0.643,4.182,0.218c1.148-0.418,1.833-2.639,3.064-2.855c1.196-0.21,2.598,1.641,3.854,1.641
					s2.658-1.85,3.854-1.641c1.23,0.215,1.916,2.437,3.064,2.855c1.168,0.425,3.12-0.832,4.182-0.217
					c1.072,0.62,0.955,2.942,1.898,3.734c0.945,0.794,3.211,0.278,4.005,1.223c0.792,0.943-0.108,3.084,0.513,4.156
					c0.614,1.062,2.921,1.35,3.346,2.517c0.418,1.147-1.161,2.849-0.945,4.08C289.982,301.045,292.051,302.105,292.051,303.362z"/>
				
					<linearGradient id="XMLID_00000074441653254833283120000005237770664457530553_" gradientUnits="userSpaceOnUse" x1="281.0737" y1="314.5793" x2="254.8263" y2="288.3319">
					<stop  offset="0" style="stop-color:#FAC25B"/>
					<stop  offset="1" style="stop-color:#EC7832"/>
				</linearGradient>
				
					<circle id="XMLID_1129_" style="fill:url(#XMLID_00000074441653254833283120000005237770664457530553_);" cx="269.856" cy="303.362" r="16.346"/>
				
					<linearGradient id="XMLID_00000096033337523528822850000011263625069003219609_" gradientUnits="userSpaceOnUse" x1="280.2759" y1="313.7815" x2="255.8953" y2="289.4008">
					<stop  offset="0" style="stop-color:#EC7832"/>
					<stop  offset="1" style="stop-color:#FAC25B"/>
				</linearGradient>
				
					<circle id="XMLID_1_" style="fill:url(#XMLID_00000096033337523528822850000011263625069003219609_);" cx="269.856" cy="303.362" r="15.184"/>
				
					<linearGradient id="XMLID_00000024695312972192821260000000242399035517689751_" gradientUnits="userSpaceOnUse" x1="276.4234" y1="311.7554" x2="263.4005" y2="298.2782">
					<stop  offset="0" style="stop-color:#FBC250"/>
					<stop  offset="1" style="stop-color:#FDE1BE"/>
				</linearGradient>
				<path id="XMLID_1128_" style="fill:url(#XMLID_00000024695312972192821260000000242399035517689751_);" d="M269.629,309.823
					l-5.17,2.718c-0.358,0.189-0.778-0.116-0.709-0.515l0.987-5.757c0.027-0.158-0.025-0.32-0.14-0.433l-4.183-4.077
					c-0.29-0.283-0.13-0.775,0.271-0.834l5.781-0.84c0.159-0.023,0.297-0.123,0.368-0.267l2.585-5.238
					c0.179-0.363,0.697-0.363,0.876,0l2.585,5.238c0.071,0.144,0.209,0.244,0.368,0.267l5.781,0.84
					c0.401,0.058,0.561,0.551,0.271,0.834l-4.183,4.077c-0.115,0.112-0.168,0.274-0.141,0.433l0.987,5.757
					c0.068,0.399-0.351,0.704-0.709,0.515l-5.17-2.718C269.941,309.748,269.771,309.748,269.629,309.823z"/>
			</g>
			<g>
				<path style="fill:#BDEBF9;" d="M255.34,215.221h-37.008c-0.248,0-0.449-0.201-0.449-0.449v-2.322
					c0-0.248,0.201-0.449,0.449-0.449h37.008c0.248,0,0.449,0.201,0.449,0.449v2.322C255.79,215.02,255.589,215.221,255.34,215.221z
					"/>
				<path style="fill:#BDEBF9;" d="M275.215,228.183h-76.758c-0.356,0-0.645-0.289-0.645-0.645v-1.931
					c0-0.356,0.289-0.645,0.645-0.645h76.758c0.356,0,0.645,0.289,0.645,0.645v1.931
					C275.86,227.894,275.572,228.183,275.215,228.183z"/>
				<path style="fill:#BDEBF9;" d="M275.215,237.681h-76.758c-0.356,0-0.645-0.289-0.645-0.645v-1.932
					c0-0.356,0.289-0.645,0.645-0.645h76.758c0.356,0,0.645,0.289,0.645,0.645v1.932
					C275.86,237.393,275.572,237.681,275.215,237.681z"/>
				<path style="fill:#BDEBF9;" d="M275.215,247.18h-76.758c-0.356,0-0.645-0.289-0.645-0.645v-1.931
					c0-0.356,0.289-0.645,0.645-0.645h76.758c0.356,0,0.645,0.289,0.645,0.645v1.931C275.86,246.891,275.572,247.18,275.215,247.18z
					"/>
				<path style="fill:#BDEBF9;" d="M275.215,256.678h-76.758c-0.356,0-0.645-0.289-0.645-0.645v-1.931
					c0-0.356,0.289-0.645,0.645-0.645h76.758c0.356,0,0.645,0.289,0.645,0.645v1.931
					C275.86,256.389,275.572,256.678,275.215,256.678z"/>
				<path style="fill:#BDEBF9;" d="M275.215,266.176h-76.758c-0.356,0-0.645-0.289-0.645-0.645V263.6
					c0-0.356,0.289-0.645,0.645-0.645h76.758c0.356,0,0.645,0.289,0.645,0.645v1.931
					C275.86,265.888,275.572,266.176,275.215,266.176z"/>
				<path style="fill:#BDEBF9;" d="M275.215,275.675h-76.758c-0.356,0-0.645-0.289-0.645-0.645v-1.931
					c0-0.356,0.289-0.645,0.645-0.645h76.758c0.356,0,0.645,0.289,0.645,0.645v1.931
					C275.86,275.386,275.572,275.675,275.215,275.675z"/>
				<path style="fill:#BDEBF9;" d="M236.381,294.672h-38.112c-0.252,0-0.456-0.204-0.456-0.456v-2.309
					c0-0.252,0.204-0.456,0.456-0.456h38.112c0.252,0,0.456,0.204,0.456,0.456v2.309
					C236.837,294.467,236.632,294.672,236.381,294.672z"/>
				<path style="fill:#BDEBF9;" d="M236.381,285.173h-38.112c-0.252,0-0.456-0.204-0.456-0.456v-2.309
					c0-0.252,0.204-0.456,0.456-0.456h38.112c0.252,0,0.456,0.204,0.456,0.456v2.309
					C236.837,284.969,236.632,285.173,236.381,285.173z"/>
				<path style="fill:#BDEBF9;" d="M236.381,313.648h-38.112c-0.252,0-0.456-0.204-0.456-0.456v-2.309
					c0-0.252,0.204-0.456,0.456-0.456h38.112c0.252,0,0.456,0.204,0.456,0.456v2.309
					C236.837,313.444,236.632,313.648,236.381,313.648z"/>
				<path style="fill:#BDEBF9;" d="M236.381,304.15h-38.112c-0.252,0-0.456-0.204-0.456-0.456v-2.309
					c0-0.252,0.204-0.456,0.456-0.456h38.112c0.252,0,0.456,0.204,0.456,0.456v2.309C236.837,303.946,236.632,304.15,236.381,304.15
					z"/>
				<path style="fill:#BDEBF9;" d="M236.381,332.645h-38.112c-0.252,0-0.456-0.204-0.456-0.456v-2.309
					c0-0.252,0.204-0.456,0.456-0.456h38.112c0.252,0,0.456,0.204,0.456,0.456v2.309
					C236.837,332.441,236.632,332.645,236.381,332.645z"/>
				<path style="fill:#BDEBF9;" d="M236.381,323.147h-38.112c-0.252,0-0.456-0.204-0.456-0.456v-2.309
					c0-0.252,0.204-0.456,0.456-0.456h38.112c0.252,0,0.456,0.204,0.456,0.456v2.309
					C236.837,322.942,236.632,323.147,236.381,323.147z"/>
			</g>
			<g>
				<text transform="matrix(1 0 0 1 197.5957 204.8859)" style="fill:#44A1B7; font-family:'Antonio-Bold'; font-size:15.3459px;">CERTIFICATION</text>
			</g>
		</g>
		<g>
			<g>
				<linearGradient id="SVGID_1_" gradientUnits="userSpaceOnUse" x1="108.3341" y1="385.0718" x2="164.7202" y2="385.0718">
					<stop  offset="0" style="stop-color:#FAC25B"/>
					<stop  offset="1" style="stop-color:#EC7832"/>
				</linearGradient>
				<path style="fill:url(#SVGID_1_);" d="M126.615,380.941h-8.514h-8.514c0,0-19.679,2.364-19.679,8.262h28.193h28.193
					C146.294,383.305,126.615,380.941,126.615,380.941z"/>
				
					<linearGradient id="SVGID_00000090990649959703693540000015351019397217429944_" gradientUnits="userSpaceOnUse" x1="92.6527" y1="391.571" x2="158.7372" y2="391.571">
					<stop  offset="0" style="stop-color:#FAC25B"/>
					<stop  offset="1" style="stop-color:#EC7832"/>
				</linearGradient>
				<path style="fill:url(#SVGID_00000090990649959703693540000015351019397217429944_);" d="M151.143,393.939H85.058l0,0
					c0-2.616,2.121-4.737,4.736-4.737h56.612C149.022,389.203,151.143,391.323,151.143,393.939L151.143,393.939z"/>
				
					<linearGradient id="SVGID_00000015327658306727173460000004113802237211554956_" gradientUnits="userSpaceOnUse" x1="85.7602" y1="330.1371" x2="158.314" y2="330.1371">
					<stop  offset="0" style="stop-color:#FAC25B"/>
					<stop  offset="1" style="stop-color:#EC7832"/>
				</linearGradient>
				<path style="fill:url(#SVGID_00000015327658306727173460000004113802237211554956_);" d="M180.593,296.426
					c-2.425-5.485-7.32-9.249-13.784-10.596c-1.379-0.286-2.703-0.409-3.971-0.397c-1.677,0.015-3.039-1.353-3.086-3.03
					l-0.001-0.022c-0.048-1.697-1.437-3.048-3.135-3.048h-38.515H79.586c-1.698,0-3.087,1.351-3.135,3.048l-0.001,0.021
					c-0.047,1.675-1.407,3.042-3.082,3.029c-1.258-0.009-2.572,0.113-3.939,0.398c-6.464,1.348-11.36,5.111-13.784,10.596
					c-2.69,6.086-1.886,13.556,2.206,20.495c5.288,8.967,15.9,13.144,24.426,16.501c5.219,2.054,10.149,3.996,11.718,6.345
					c1.469,2.199,1.734,4.202,0.767,5.79c-0.968,1.594-3.103,2.537-5.197,2.308c-0.341-0.038-0.757-0.123-1.201-0.278
					c-0.908-0.582-1.086-1.716-0.395-3.499c0.693-1.787,0.038-4.909-3.792-4.339c-3.211,0.478-2.969,3.549-2.776,4.645
					c0.014,0.119,0.083,0.39,0.083,0.39c1.265,3.763,4.069,6.154,7.693,6.559c0.343,0.038,0.686,0.057,1.027,0.057
					c3.091,0,6.036-1.54,7.548-4.024c0.628-1.032,0.972-2.166,1.043-3.355c0.046-0.772,0.934-1.167,1.504-0.644
					c5.765,5.286,10.645,9.345,11.712,14.784c2.819,14.378-2.425,22.78-2.425,22.78h8.514h8.514c0,0-5.244-8.402-2.425-22.78
					c1.069-5.449,5.966-9.514,11.746-14.815c0.571-0.524,1.46-0.127,1.504,0.647c0.068,1.2,0.412,2.344,1.045,3.384
					c1.512,2.484,4.457,4.024,7.549,4.024c0.341,0,0.685-0.019,1.028-0.057c3.606-0.403,6.398-2.771,7.672-6.501
					c0.005-0.016,0.02-0.058,0.02-0.058s1.226-4.452-2.693-5.035c-3.83-0.57-4.485,2.552-3.792,4.339
					c0.692,1.784,0.513,2.919-0.397,3.5c-0.444,0.155-0.858,0.239-1.199,0.277c-2.099,0.228-4.228-0.714-5.198-2.308
					c-0.966-1.588-0.702-3.591,0.767-5.79c1.569-2.349,6.499-4.291,11.719-6.345c8.526-3.357,19.138-7.534,24.426-16.501
					C182.479,309.982,183.284,302.511,180.593,296.426z M88.28,332.075c-1.481-0.634-3.068-1.26-4.72-1.91
					c-8.028-3.161-18.018-7.093-22.694-15.022c-3.512-5.956-4.248-12.262-2.019-17.303c1.956-4.426,5.968-7.473,11.297-8.584
					l0.069-0.014c3.213-0.663,6.308,1.617,6.58,4.886c0.73,8.776,2.749,20.102,7.928,30.088c1.324,2.554,2.772,4.853,4.289,6.949
					C89.372,331.668,88.85,332.319,88.28,332.075z M175.372,315.143c-4.676,7.929-14.666,11.861-22.693,15.022
					c-1.671,0.658-3.277,1.291-4.773,1.932c-0.57,0.244-1.093-0.407-0.729-0.909c1.522-2.103,2.976-4.409,4.305-6.972
					c5.179-9.988,7.198-21.314,7.928-30.091c0.272-3.27,3.365-5.551,6.579-4.891l0.106,0.022c5.329,1.111,9.341,4.159,11.297,8.584
					C179.62,302.881,178.883,309.188,175.372,315.143z"/>
			</g>
			
				<linearGradient id="SVGID_00000155835947156506910260000004990436739164230807_" gradientUnits="userSpaceOnUse" x1="113.5253" y1="316.9103" x2="71.6396" y2="316.9103">
				<stop  offset="0" style="stop-color:#FBC250;stop-opacity:0"/>
				<stop  offset="1" style="stop-color:#FDE1BE"/>
			</linearGradient>
			<path style="fill:url(#SVGID_00000155835947156506910260000004990436739164230807_);" d="M102.707,283.197H83.095
				c-0.903,0-1.643,0.708-1.674,1.611c-0.278,8.023,0.234,44.015,30.285,62.432c0.379,0.232,6.413,3.384,6.413,3.384v-67.427
				H102.707z"/>
			
				<linearGradient id="SVGID_00000085959017836333110110000004099999772146503094_" gradientUnits="userSpaceOnUse" x1="81.0193" y1="396.5946" x2="155.5855" y2="396.5946">
				<stop  offset="0" style="stop-color:#FAC25B"/>
				<stop  offset="1" style="stop-color:#EC7832"/>
			</linearGradient>
			<path style="fill:url(#SVGID_00000085959017836333110110000004099999772146503094_);" d="M155.585,399.25H81.019v-2.129
				c0-1.757,1.424-3.182,3.182-3.182h68.203c1.757,0,3.182,1.424,3.182,3.182V399.25z"/>
		</g>
		<g>
			<path style="fill:#FFFFFF;" d="M416.103,247.18h-74.065c-2.593,0-4.694-2.102-4.694-4.694V163.5c0-2.593,2.102-4.694,4.694-4.694
				h74.065c2.593,0,4.694,2.102,4.694,4.694v78.985C420.797,245.078,418.695,247.18,416.103,247.18z"/>
			<g>
				<path style="fill:#004E8B;" d="M377.29,213.72l-34.182-14.459c-1.111-0.47-1.111-2.043,0-2.513l34.182-14.459
					c1.138-0.481,2.423-0.481,3.56,0l34.182,14.459c1.11,0.47,1.11,2.043,0,2.513L380.85,213.72
					C379.712,214.202,378.428,214.202,377.29,213.72z"/>
				
					<linearGradient id="SVGID_00000152244221740708969600000010833823600015016889_" gradientUnits="userSpaceOnUse" x1="361.771" y1="208.4142" x2="396.3693" y2="208.4142">
					<stop  offset="0" style="stop-color:#084975"/>
					<stop  offset="1" style="stop-color:#082E66"/>
				</linearGradient>
				<path style="fill:url(#SVGID_00000152244221740708969600000010833823600015016889_);" d="M379.07,195.859
					c-9.554,0-17.299,1.126-17.299,2.514v20.082c0,1.389,7.745,2.515,17.299,2.515c9.554,0,17.299-1.126,17.299-2.515v-20.082
					C396.369,196.985,388.624,195.859,379.07,195.859z"/>
				
					<linearGradient id="SVGID_00000155115747049190728530000008994301843793941397_" gradientUnits="userSpaceOnUse" x1="363.3174" y1="217.7043" x2="394.8229" y2="217.7043">
					<stop  offset="0" style="stop-color:#082E66"/>
					<stop  offset="1" style="stop-color:#084975"/>
				</linearGradient>
				<path style="fill:url(#SVGID_00000155115747049190728530000008994301843793941397_);" d="M394.823,217.704
					c0,1.264-7.053,2.29-15.753,2.29c-8.7,0-15.753-1.025-15.753-2.29c0-1.265,7.053-2.29,15.753-2.29
					C387.77,215.415,394.823,216.44,394.823,217.704z"/>
				
					<linearGradient id="SVGID_00000031918159973638965950000014438626969945746080_" gradientUnits="userSpaceOnUse" x1="399.563" y1="221.4996" x2="399.563" y2="189.6744">
					<stop  offset="0" style="stop-color:#EC7832"/>
					<stop  offset="1" style="stop-color:#FAC25B"/>
				</linearGradient>
				
					<line style="fill:none;stroke:url(#SVGID_00000031918159973638965950000014438626969945746080_);stroke-width:1.0601;stroke-linecap:round;stroke-miterlimit:10;" x1="399.563" y1="190.204" x2="399.563" y2="220.97"/>
				
					<linearGradient id="SVGID_00000177473072416265534460000001852199849493959043_" gradientUnits="userSpaceOnUse" x1="399.563" y1="230.7247" x2="399.563" y2="220.9696">
					<stop  offset="0" style="stop-color:#EC7832"/>
					<stop  offset="1" style="stop-color:#FAC25B"/>
				</linearGradient>
				<path style="fill:url(#SVGID_00000177473072416265534460000001852199849493959043_);" d="M401.775,230.725h-4.424v-7.543
					c0-1.222,0.99-2.212,2.212-2.212l0,0c1.222,0,2.212,0.99,2.212,2.212V230.725z"/>
			</g>
		</g>
		<g>
			
				<linearGradient id="SVGID_00000036973484366311060400000016688973325576955819_" gradientUnits="userSpaceOnUse" x1="66.1432" y1="409.05" x2="169.1755" y2="409.05">
				<stop  offset="0" style="stop-color:#084975"/>
				<stop  offset="1" style="stop-color:#082E66"/>
			</linearGradient>
			<path style="fill:url(#SVGID_00000036973484366311060400000016688973325576955819_);" d="M166.49,402.347v13.415h1.142
				c0.853,0,1.544,0.691,1.544,1.544l0,0c0,0.853-0.691,1.544-1.544,1.544H72.423c-3.468,0-6.28-2.812-6.28-6.28v-7.04
				c0-3.468,2.812-6.28,6.28-6.28h95.208c0.853,0,1.544,0.691,1.544,1.544v0.009c0,0.853-0.691,1.544-1.544,1.544H166.49z"/>
			<path style="fill:#FFFFFF;" d="M166.491,415.763H72.696c-1.653,0-2.994-1.34-2.994-2.994v-7.432c0-1.653,1.34-2.994,2.994-2.994
				h93.795V415.763z"/>
			<g>
				<defs>
					<path id="SVGID_00000132054242664132343480000000810243996864299921_" d="M166.491,415.763H72.696
						c-1.653,0-2.994-1.34-2.994-2.994v-7.432c0-1.653,1.34-2.994,2.994-2.994h93.795V415.763z"/>
				</defs>
				<clipPath id="SVGID_00000039848737243090344940000008149167272343733684_">
					<use xlink:href="#SVGID_00000132054242664132343480000000810243996864299921_"  style="overflow:visible;"/>
				</clipPath>
				<g style="clip-path:url(#SVGID_00000039848737243090344940000008149167272343733684_);">
					
						<line style="fill:none;stroke:#E8E8E8;stroke-width:0.7104;stroke-miterlimit:10;" x1="69.702" y1="413.487" x2="166.49" y2="413.487"/>
					
						<line style="fill:none;stroke:#E8E8E8;stroke-width:0.7104;stroke-miterlimit:10;" x1="69.702" y1="414.754" x2="166.49" y2="414.754"/>
					
						<line style="fill:none;stroke:#E8E8E8;stroke-width:0.7104;stroke-miterlimit:10;" x1="69.702" y1="403.353" x2="166.49" y2="403.353"/>
					
						<line style="fill:none;stroke:#E8E8E8;stroke-width:0.7104;stroke-miterlimit:10;" x1="69.702" y1="404.62" x2="166.49" y2="404.62"/>
					
						<line style="fill:none;stroke:#E8E8E8;stroke-width:0.7104;stroke-miterlimit:10;" x1="69.702" y1="405.887" x2="166.49" y2="405.887"/>
					
						<line style="fill:none;stroke:#E8E8E8;stroke-width:0.7104;stroke-miterlimit:10;" x1="69.702" y1="407.153" x2="166.49" y2="407.153"/>
					
						<line style="fill:none;stroke:#E8E8E8;stroke-width:0.7104;stroke-miterlimit:10;" x1="69.702" y1="408.42" x2="166.49" y2="408.42"/>
					
						<line style="fill:none;stroke:#E8E8E8;stroke-width:0.7104;stroke-miterlimit:10;" x1="69.702" y1="409.687" x2="166.49" y2="409.687"/>
					
						<line style="fill:none;stroke:#E8E8E8;stroke-width:0.7104;stroke-miterlimit:10;" x1="69.702" y1="410.954" x2="166.49" y2="410.954"/>
					
						<line style="fill:none;stroke:#E8E8E8;stroke-width:0.7104;stroke-miterlimit:10;" x1="69.702" y1="412.22" x2="166.49" y2="412.22"/>
				</g>
			</g>
		</g>
		<g>
			<g style="opacity:0.5;">
				
					<line style="fill:none;stroke:#004E8B;stroke-width:2;stroke-linecap:round;stroke-miterlimit:10;" x1="43.125" y1="308.65" x2="48.875" y2="308.65"/>
				
					<line style="fill:none;stroke:#004E8B;stroke-width:2;stroke-linecap:round;stroke-miterlimit:10;" x1="46" y1="305.775" x2="46" y2="311.525"/>
			</g>
			<g style="opacity:0.5;">
				
					<line style="fill:none;stroke:#004E8B;stroke-width:2;stroke-linecap:round;stroke-miterlimit:10;" x1="445.125" y1="357.275" x2="450.875" y2="357.275"/>
				
					<line style="fill:none;stroke:#004E8B;stroke-width:2;stroke-linecap:round;stroke-miterlimit:10;" x1="448" y1="354.4" x2="448" y2="360.15"/>
			</g>
			<g style="opacity:0.5;">
				
					<line style="fill:none;stroke:#004E8B;stroke-width:2;stroke-linecap:round;stroke-miterlimit:10;" x1="279.657" y1="168.032" x2="285.407" y2="168.032"/>
				
					<line style="fill:none;stroke:#004E8B;stroke-width:2;stroke-linecap:round;stroke-miterlimit:10;" x1="282.532" y1="165.157" x2="282.532" y2="170.907"/>
			</g>
			<g style="opacity:0.5;">
				
					<line style="fill:none;stroke:#004E8B;stroke-width:2;stroke-linecap:round;stroke-miterlimit:10;" x1="166.3" y1="124.259" x2="172.05" y2="124.259"/>
				
					<line style="fill:none;stroke:#004E8B;stroke-width:2;stroke-linecap:round;stroke-miterlimit:10;" x1="169.175" y1="121.384" x2="169.175" y2="127.134"/>
			</g>
		</g>
		<g>
			<polygon style="fill:#E1EFF9;" points="143.853,153.702 115.978,172.568 88.104,153.702 			"/>
			<path style="fill:#E1EFF9;" d="M143.853,153.702l-25.782-26.289c-1.149-1.172-3.036-1.172-4.185,0l-25.782,26.289H143.853z"/>
			<g>
				<rect x="92.683" y="134.509" style="fill:#71A8C6;" width="46.591" height="46.074"/>
				<rect x="92.683" y="134.509" style="fill:#44A1B7;" width="46.591" height="6.171"/>
				<path style="fill:#FFFFFF;" d="M97.728,137.595c0,0.725-0.587,1.312-1.312,1.312c-0.724,0-1.312-0.587-1.312-1.312
					c0-0.725,0.587-1.312,1.312-1.312C97.141,136.283,97.728,136.87,97.728,137.595z"/>
				<path style="fill:#FFFFFF;" d="M102.024,137.595c0,0.725-0.587,1.312-1.312,1.312c-0.725,0-1.312-0.587-1.312-1.312
					c0-0.725,0.587-1.312,1.312-1.312C101.437,136.283,102.024,136.87,102.024,137.595z"/>
				<path style="fill:#FFFFFF;" d="M106.32,137.595c0,0.725-0.587,1.312-1.312,1.312c-0.725,0-1.312-0.587-1.312-1.312
					c0-0.725,0.587-1.312,1.312-1.312C105.732,136.283,106.32,136.87,106.32,137.595z"/>
				<g>
					<g>
						<path style="fill:#FFFFFF;" d="M106.923,156.356h-7.129l-1.405,3.299H95.66l6.414-14.256h2.608l6.433,14.256h-2.768
							L106.923,156.356z M106.047,154.278l-2.689-6.231l-2.667,6.231H106.047z"/>
					</g>
					<rect x="114.464" y="145.151" style="fill:#FFFFFF;" width="21.12" height="1.328"/>
					<rect x="114.464" y="148.743" style="fill:#FFFFFF;" width="21.12" height="1.328"/>
					<rect x="114.464" y="152.336" style="fill:#FFFFFF;" width="21.12" height="1.328"/>
					<rect x="114.464" y="155.928" style="fill:#FFFFFF;" width="21.12" height="1.328"/>
					<rect x="114.464" y="159.52" style="fill:#FFFFFF;" width="21.12" height="1.328"/>
					<rect x="96.416" y="163.113" style="fill:#FFFFFF;" width="39.167" height="1.328"/>
					<rect x="96.416" y="166.705" style="fill:#FFFFFF;" width="39.167" height="1.328"/>
					<rect x="96.416" y="170.297" style="fill:#FFFFFF;" width="39.167" height="1.327"/>
					<rect x="96.416" y="173.889" style="fill:#FFFFFF;" width="39.167" height="1.328"/>
				</g>
			</g>
			<path style="fill:#FFFFFF;" d="M143.847,153.703v34.377c0,1.022-0.458,1.938-1.182,2.545c-0.586,0.5-1.342,0.799-2.162,0.799
				H91.461c-1.853,0-3.355-1.502-3.355-3.344v-34.377l27.87,18.861h0.011L143.847,153.703z"/>
			<path style="opacity:0.25;fill:#BBC3FA;" d="M143.847,153.703v34.377c0,1.022-0.458,1.938-1.182,2.545l-26.678-18.062
				L143.847,153.703z"/>
		</g>
		<g>
			<path style="fill:#FFFFFF;" d="M282.738,98.662h-8.102c-0.522,0-0.944-0.423-0.944-0.944v-8.102c0-0.521,0.423-0.944,0.944-0.944
				h8.102c0.521,0,0.944,0.423,0.944,0.944v8.102C283.682,98.239,283.26,98.662,282.738,98.662z"/>
			<path style="fill:#FFFFFF;" d="M296.102,98.662H288c-0.522,0-0.944-0.423-0.944-0.944v-8.102c0-0.521,0.423-0.944,0.944-0.944
				h8.102c0.521,0,0.944,0.423,0.944,0.944v8.102C297.046,98.239,296.623,98.662,296.102,98.662z"/>
			<path style="fill:#FFFFFF;" d="M309.466,98.662h-8.102c-0.522,0-0.944-0.423-0.944-0.944v-8.102c0-0.521,0.423-0.944,0.944-0.944
				h8.102c0.522,0,0.944,0.423,0.944,0.944v8.102C310.41,98.239,309.987,98.662,309.466,98.662z"/>
		</g>
		<g>
			<path style="fill:#FFFFFF;" d="M219.938,141.317c0-8.165-9.906-14.784-22.125-14.784c-12.219,0-22.125,6.619-22.125,14.784
				c0,8.165,9.906,14.784,22.125,14.784c2.109,0,4.148-0.2,6.08-0.569c0.497-0.095,1.009,0.014,1.414,0.317l8.432,6.294
				c0.459,0.343,1.088-0.105,0.913-0.651l-2.363-7.4c-0.247-0.773,0.063-1.613,0.748-2.048
				C217.288,149.349,219.938,145.54,219.938,141.317z"/>
			<g>
				<path style="fill:#004E8B;" d="M190.02,141.342c0,1.136-0.921,2.058-2.058,2.058c-1.136,0-2.058-0.921-2.058-2.058
					c0-1.137,0.921-2.058,2.058-2.058C189.099,139.284,190.02,140.205,190.02,141.342z"/>
				<path style="fill:#004E8B;" d="M199.871,141.342c0,1.136-0.921,2.058-2.058,2.058c-1.137,0-2.058-0.921-2.058-2.058
					c0-1.137,0.921-2.058,2.058-2.058C198.949,139.284,199.871,140.205,199.871,141.342z"/>
				<path style="fill:#004E8B;" d="M209.721,141.342c0,1.136-0.921,2.058-2.058,2.058c-1.137,0-2.058-0.921-2.058-2.058
					c0-1.137,0.921-2.058,2.058-2.058C208.8,139.284,209.721,140.205,209.721,141.342z"/>
			</g>
		</g>
		<g>
			<g>
				<path style="fill:#FFFFFF;" d="M194.975,93.667c0,1.977-1.602,3.579-3.579,3.579s-3.579-1.602-3.579-3.579
					c0-1.977,1.602-3.579,3.579-3.579S194.975,91.69,194.975,93.667z"/>
				<path style="fill:#FFFFFF;" d="M207.808,93.667c0,1.977-1.602,3.579-3.579,3.579s-3.579-1.602-3.579-3.579
					c0-1.977,1.602-3.579,3.579-3.579S207.808,91.69,207.808,93.667z"/>
			</g>
			<g>
				
					<ellipse transform="matrix(0.7071 -0.7071 0.7071 0.7071 -129.8705 128.4041)" style="fill:none;stroke:#FFFFFF;stroke-width:1.5901;stroke-miterlimit:10;" cx="90.062" cy="220.97" rx="10.771" ry="10.771"/>
				
					<path style="fill:none;stroke:#FFFFFF;stroke-width:1.5901;stroke-linecap:round;stroke-linejoin:round;stroke-miterlimit:10;" d="
					M84.549,221.517c0,0,3.876,3.876,3.743,3.743c-0.132-0.132,8.149-8.149,8.149-8.149"/>
			</g>
			<g>
				
					<ellipse transform="matrix(0.7429 -0.6694 0.6694 0.7429 -2.6992 246.0386)" style="fill:none;stroke:#FFFFFF;stroke-width:1.5901;stroke-miterlimit:10;" cx="318.984" cy="126.534" rx="10.771" ry="10.771"/>
				
					<path style="fill:none;stroke:#FFFFFF;stroke-width:1.5901;stroke-linecap:round;stroke-linejoin:round;stroke-miterlimit:10;" d="
					M313.471,127.081c0,0,3.876,3.876,3.743,3.743c-0.132-0.133,8.149-8.149,8.149-8.149"/>
			</g>
			<g>
				
					<line style="fill:none;stroke:#FFFFFF;stroke-width:1.5901;stroke-linecap:round;stroke-linejoin:round;stroke-miterlimit:10;" x1="46" y1="255.068" x2="55" y2="255.068"/>
				
					<line style="fill:none;stroke:#FFFFFF;stroke-width:1.5901;stroke-linecap:round;stroke-linejoin:round;stroke-miterlimit:10;" x1="50.5" y1="250.568" x2="50.5" y2="259.568"/>
			</g>
			<g>
				
					<line style="fill:none;stroke:#FFFFFF;stroke-width:1.5901;stroke-linecap:round;stroke-linejoin:round;stroke-miterlimit:10;" x1="460.875" y1="276.357" x2="469.875" y2="276.357"/>
				
					<line style="fill:none;stroke:#FFFFFF;stroke-width:1.5901;stroke-linecap:round;stroke-linejoin:round;stroke-miterlimit:10;" x1="465.375" y1="271.857" x2="465.375" y2="280.857"/>
			</g>
			<g>
				
					<line style="fill:none;stroke:#FFFFFF;stroke-width:1.5901;stroke-linecap:round;stroke-linejoin:round;stroke-miterlimit:10;" x1="142.556" y1="113.5" x2="151.556" y2="113.5"/>
				
					<line style="fill:none;stroke:#FFFFFF;stroke-width:1.5901;stroke-linecap:round;stroke-linejoin:round;stroke-miterlimit:10;" x1="147.056" y1="109" x2="147.056" y2="118"/>
			</g>
			<g>
				
					<line style="fill:none;stroke:#FFFFFF;stroke-width:1.5901;stroke-linecap:round;stroke-linejoin:round;stroke-miterlimit:10;" x1="384.232" y1="135.247" x2="393.232" y2="135.247"/>
				
					<line style="fill:none;stroke:#FFFFFF;stroke-width:1.5901;stroke-linecap:round;stroke-linejoin:round;stroke-miterlimit:10;" x1="388.732" y1="130.747" x2="388.732" y2="139.747"/>
			</g>
			<g>
				
					<line style="fill:none;stroke:#FFFFFF;stroke-width:1.5901;stroke-linecap:round;stroke-linejoin:round;stroke-miterlimit:10;" x1="300.915" y1="154.278" x2="309.915" y2="154.278"/>
				
					<line style="fill:none;stroke:#FFFFFF;stroke-width:1.5901;stroke-linecap:round;stroke-linejoin:round;stroke-miterlimit:10;" x1="305.415" y1="149.778" x2="305.415" y2="158.778"/>
			</g>
			<g>
				
					<line style="fill:none;stroke:#FFFFFF;stroke-width:1.5901;stroke-linecap:round;stroke-linejoin:round;stroke-miterlimit:10;" x1="390.323" y1="264.921" x2="399.323" y2="264.921"/>
				
					<line style="fill:none;stroke:#FFFFFF;stroke-width:1.5901;stroke-linecap:round;stroke-linejoin:round;stroke-miterlimit:10;" x1="394.823" y1="260.421" x2="394.823" y2="269.421"/>
			</g>
			<g>
				
					<line style="fill:none;stroke:#FFFFFF;stroke-width:1.5901;stroke-linecap:round;stroke-linejoin:round;stroke-miterlimit:10;" x1="79.291" y1="376.36" x2="88.291" y2="376.36"/>
				
					<line style="fill:none;stroke:#FFFFFF;stroke-width:1.5901;stroke-linecap:round;stroke-linejoin:round;stroke-miterlimit:10;" x1="83.791" y1="371.86" x2="83.791" y2="380.86"/>
			</g>
			<g>
				<path style="fill:#FFFFFF;" d="M328.03,407.339h-8.102c-0.521,0-0.944-0.423-0.944-0.944v-8.102
					c0-0.522,0.423-0.944,0.944-0.944h8.102c0.522,0,0.944,0.423,0.944,0.944v8.102C328.975,406.916,328.552,407.339,328.03,407.339
					z"/>
				<path style="fill:#FFFFFF;" d="M341.394,407.339h-8.102c-0.522,0-0.944-0.423-0.944-0.944v-8.102
					c0-0.522,0.423-0.944,0.944-0.944h8.102c0.521,0,0.944,0.423,0.944,0.944v8.102
					C342.339,406.916,341.916,407.339,341.394,407.339z"/>
				<path style="fill:#FFFFFF;" d="M354.758,407.339h-8.102c-0.522,0-0.944-0.423-0.944-0.944v-8.102
					c0-0.522,0.423-0.944,0.944-0.944h8.102c0.522,0,0.944,0.423,0.944,0.944v8.102C355.702,406.916,355.28,407.339,354.758,407.339
					z"/>
			</g>
			<g>
				
					<polyline style="fill:none;stroke:#FFFFFF;stroke-width:3;stroke-linecap:round;stroke-linejoin:round;stroke-miterlimit:10;" points="
					331.916,317.884 322.9,308.868 331.916,299.852 				"/>
				
					<line style="fill:none;stroke:#FFFFFF;stroke-width:3;stroke-linecap:round;stroke-linejoin:round;stroke-miterlimit:10;" x1="322.9" y1="308.868" x2="345.712" y2="308.868"/>
			</g>
			<g>
				
					<polyline style="fill:none;stroke:#FFFFFF;stroke-width:1.974;stroke-linecap:round;stroke-linejoin:round;stroke-miterlimit:10;" points="
					256.256,147.274 250.323,141.341 256.256,135.409 				"/>
				
					<line style="fill:none;stroke:#FFFFFF;stroke-width:1.974;stroke-linecap:round;stroke-linejoin:round;stroke-miterlimit:10;" x1="250.323" y1="141.341" x2="265.333" y2="141.341"/>
			</g>
		</g>
		<g>
			<g>
				<g>
					
						<line style="fill:none;stroke:#FFFFFF;stroke-width:1.0632;stroke-linecap:round;stroke-miterlimit:10;" x1="86" y1="170.961" x2="83.873" y2="170.961"/>
					
						<path style="fill:none;stroke:#FFFFFF;stroke-width:1.0632;stroke-linecap:round;stroke-miterlimit:10;stroke-dasharray:4.3216,4.3216;" d="
						M79.552,170.961h-9.657c-3.67,0-6.644,2.975-6.644,6.645v78.705c0,3.67,2.975,6.645,6.644,6.645h35.568"/>
					
						<line style="fill:none;stroke:#FFFFFF;stroke-width:1.0632;stroke-linecap:round;stroke-miterlimit:10;" x1="107.623" y1="262.955" x2="109.75" y2="262.955"/>
				</g>
			</g>
			<g>
				<g>
					
						<line style="fill:none;stroke:#FFFFFF;stroke-width:1.0632;stroke-linecap:round;stroke-miterlimit:10;" x1="426.794" y1="198.438" x2="428.921" y2="198.438"/>
					
						<path style="fill:none;stroke:#FFFFFF;stroke-width:1.0632;stroke-linecap:round;stroke-miterlimit:10;stroke-dasharray:4.2576,4.2576;" d="
						M433.168,198.603c2.77,0.649,4.832,3.135,4.832,6.102v165.229c0,3.461-2.806,6.267-6.267,6.267H387.4"/>
					
						<line style="fill:none;stroke:#FFFFFF;stroke-width:1.0632;stroke-linecap:round;stroke-miterlimit:10;" x1="385.267" y1="376.201" x2="383.14" y2="376.201"/>
				</g>
			</g>
			
				<line style="fill:none;stroke:#FFFFFF;stroke-width:1.0632;stroke-linecap:round;stroke-miterlimit:10;stroke-dasharray:4.253;" x1="212.667" y1="93.667" x2="269.856" y2="93.667"/>
		</g>
		<g>
			<path style="fill:#FFFFFF;" d="M144.729,231.404h-34.375c-0.334,0-0.604-0.27-0.604-0.604v-2.013c0-0.334,0.27-0.604,0.604-0.604
				h34.375c0.334,0,0.604,0.27,0.604,0.604v2.013C145.333,231.133,145.063,231.404,144.729,231.404z"/>
			<path style="fill:#FFFFFF;" d="M144.729,237.681h-34.375c-0.334,0-0.604-0.27-0.604-0.604v-2.013c0-0.334,0.27-0.604,0.604-0.604
				h34.375c0.334,0,0.604,0.27,0.604,0.604v2.013C145.333,237.411,145.063,237.681,144.729,237.681z"/>
			<path style="fill:#FFFFFF;" d="M144.729,243.959h-34.375c-0.334,0-0.604-0.27-0.604-0.604v-2.013c0-0.334,0.27-0.604,0.604-0.604
				h34.375c0.334,0,0.604,0.27,0.604,0.604v2.013C145.333,243.688,145.063,243.959,144.729,243.959z"/>
			<path style="fill:#FFFFFF;" d="M144.729,250.236h-34.375c-0.334,0-0.604-0.27-0.604-0.604v-2.013c0-0.334,0.27-0.604,0.604-0.604
				h34.375c0.334,0,0.604,0.271,0.604,0.604v2.013C145.333,249.965,145.063,250.236,144.729,250.236z"/>
		</g>
		<g>
			<path style="fill:#FFFFFF;" d="M372.89,131.101h-34.375c-0.334,0-0.604-0.27-0.604-0.604v-2.013c0-0.334,0.27-0.604,0.604-0.604
				h34.375c0.334,0,0.604,0.27,0.604,0.604v2.013C373.494,130.831,373.224,131.101,372.89,131.101z"/>
			<path style="fill:#FFFFFF;" d="M372.89,137.379h-34.375c-0.334,0-0.604-0.271-0.604-0.604v-2.013c0-0.334,0.27-0.604,0.604-0.604
				h34.375c0.334,0,0.604,0.27,0.604,0.604v2.013C373.494,137.108,373.224,137.379,372.89,137.379z"/>
			<path style="fill:#FFFFFF;" d="M372.89,143.656h-34.375c-0.334,0-0.604-0.27-0.604-0.604v-2.013c0-0.334,0.27-0.604,0.604-0.604
				h34.375c0.334,0,0.604,0.27,0.604,0.604v2.013C373.494,143.385,373.224,143.656,372.89,143.656z"/>
			<path style="fill:#FFFFFF;" d="M372.89,149.933h-34.375c-0.334,0-0.604-0.271-0.604-0.604v-2.013c0-0.334,0.27-0.604,0.604-0.604
				h34.375c0.334,0,0.604,0.27,0.604,0.604v2.013C373.494,149.663,373.224,149.933,372.89,149.933z"/>
		</g>
	</g>
</g>
</svg>
